<svg width="553" height="97" viewBox="0 0 553 97" fill="none" xmlns="http://www.w3.org/2000/svg">
<path d="M35.8182 95H0V1.90909H35.4545C45.0303 1.90909 53.303 3.77273 60.2727 7.5C67.2727 11.197 72.6667 16.5303 76.4546 23.5C80.2727 30.4394 82.1818 38.7576 82.1818 48.4545C82.1818 58.1515 80.2879 66.4848 76.5 73.4545C72.7121 80.3939 67.3485 85.7273 60.4091 89.4545C53.4697 93.1515 45.2727 95 35.8182 95ZM25.2727 73.5455H34.9091C39.5152 73.5455 43.4394 72.803 46.6818 71.3182C49.9545 69.8333 52.4394 67.2727 54.1364 63.6364C55.8636 60 56.7273 54.9394 56.7273 48.4545C56.7273 41.9697 55.8485 36.9091 54.0909 33.2727C52.3636 29.6364 49.8182 27.0758 46.4545 25.5909C43.1212 24.1061 39.0303 23.3636 34.1818 23.3636H25.2727V73.5455ZM132.239 1.90909H157.148V65.7273C157.117 71.7879 155.587 77.1212 152.557 81.7273C149.557 86.303 145.405 89.8788 140.102 92.4545C134.83 95 128.754 96.2727 121.875 96.2727C115.905 96.2727 110.451 95.2424 105.511 93.1818C100.572 91.0909 96.6326 87.8182 93.6932 83.3636C90.7538 78.8788 89.2992 73.0606 89.3295 65.9091H114.602C114.693 68.2424 115.087 70.2121 115.784 71.8182C116.511 73.4242 117.511 74.6364 118.784 75.4545C120.087 76.2424 121.663 76.6364 123.511 76.6364C125.39 76.6364 126.966 76.2273 128.239 75.4091C129.542 74.5909 130.527 73.3788 131.193 71.7727C131.86 70.1364 132.208 68.1212 132.239 65.7273V1.90909ZM193.307 95H166.034L196.761 1.90909H231.307L262.034 95H234.761L214.398 27.5455H213.67L193.307 95ZM188.216 58.2727H239.489V77.1818H188.216V58.2727ZM351.545 1.90909V95H330.455L296.818 46.0909H296.273V95H271V1.90909H292.455L325.545 50.6364H326.273V1.90909H351.545ZM423.955 32.6364C423.561 31.0303 422.939 29.6212 422.091 28.4091C421.242 27.1667 420.182 26.1212 418.909 25.2727C417.667 24.3939 416.212 23.7424 414.545 23.3182C412.909 22.8636 411.106 22.6364 409.136 22.6364C404.894 22.6364 401.273 23.6515 398.273 25.6818C395.303 27.7121 393.03 30.6364 391.455 34.4545C389.909 38.2727 389.136 42.8788 389.136 48.2727C389.136 53.7273 389.879 58.3939 391.364 62.2727C392.848 66.1515 395.061 69.1212 398 71.1818C400.939 73.2424 404.591 74.2727 408.955 74.2727C412.803 74.2727 416 73.7121 418.545 72.5909C421.121 71.4697 423.045 69.8788 424.318 67.8182C425.591 65.7576 426.227 63.3333 426.227 60.5455L430.591 61H409.318V43H450.591V55.9091C450.591 64.3939 448.788 71.6515 445.182 77.6818C441.606 83.6818 436.667 88.2879 430.364 91.5C424.091 94.6818 416.894 96.2727 408.773 96.2727C399.712 96.2727 391.758 94.3485 384.909 90.5C378.061 86.6515 372.712 81.1667 368.864 74.0455C365.045 66.9242 363.136 58.4545 363.136 48.6364C363.136 40.9394 364.303 34.1212 366.636 28.1818C369 22.2424 372.273 17.2273 376.455 13.1364C380.636 9.01515 385.47 5.90909 390.955 3.81818C396.439 1.69697 402.318 0.63636 408.591 0.63636C414.106 0.63636 419.227 1.42424 423.955 3C428.712 4.54545 432.909 6.75757 436.545 9.63636C440.212 12.4848 443.167 15.8636 445.409 19.7727C447.652 23.6818 449.015 27.9697 449.5 32.6364H423.955ZM552.557 48.4545C552.557 58.8182 550.542 67.5606 546.511 74.6818C542.481 81.7727 537.042 87.1515 530.193 90.8182C523.345 94.4545 515.708 96.2727 507.284 96.2727C498.799 96.2727 491.133 94.4394 484.284 90.7727C477.466 87.0758 472.042 81.6818 468.011 74.5909C464.011 67.4697 462.011 58.7576 462.011 48.4545C462.011 38.0909 464.011 29.3636 468.011 22.2727C472.042 15.1515 477.466 9.77272 484.284 6.13636C491.133 2.46969 498.799 0.63636 507.284 0.63636C515.708 0.63636 523.345 2.46969 530.193 6.13636C537.042 9.77272 542.481 15.1515 546.511 22.2727C550.542 29.3636 552.557 38.0909 552.557 48.4545ZM526.557 48.4545C526.557 42.8788 525.814 38.1818 524.33 34.3636C522.875 30.5151 520.708 27.6061 517.83 25.6364C514.981 23.6364 511.466 22.6364 507.284 22.6364C503.102 22.6364 499.572 23.6364 496.693 25.6364C493.845 27.6061 491.678 30.5151 490.193 34.3636C488.739 38.1818 488.011 42.8788 488.011 48.4545C488.011 54.0303 488.739 58.7424 490.193 62.5909C491.678 66.4091 493.845 69.3182 496.693 71.3182C499.572 73.2879 503.102 74.2727 507.284 74.2727C511.466 74.2727 514.981 73.2879 517.83 71.3182C520.708 69.3182 522.875 66.4091 524.33 62.5909C525.814 58.7424 526.557 54.0303 526.557 48.4545Z" fill="white"/>
</svg>
