<svg width="468" height="102" viewBox="0 0 468 102" fill="none" xmlns="http://www.w3.org/2000/svg">
<path d="M0 1.90909H31.4545L53.0909 54.6364H54.1818L75.8182 1.90909H107.273V95H82.5455V41.1818H81.8182L61.0909 94.2727H46.1818L25.4545 40.8182H24.7273V95H0V1.90909ZM115.432 1.90909H143.614L161.795 39.7273H162.523L180.705 1.90909H208.886L174.705 65.7273V95H149.614V65.7273L115.432 1.90909ZM267.307 31C267.064 27.9697 265.928 25.6061 263.898 23.9091C261.898 22.2121 258.852 21.3636 254.761 21.3636C252.155 21.3636 250.019 21.6818 248.352 22.3182C246.716 22.9242 245.504 23.7576 244.716 24.8182C243.928 25.8788 243.519 27.0909 243.489 28.4545C243.428 29.5758 243.625 30.5909 244.08 31.5C244.564 32.3788 245.322 33.1818 246.352 33.9091C247.383 34.6061 248.701 35.2424 250.307 35.8182C251.913 36.3939 253.822 36.9091 256.034 37.3636L263.67 39C268.822 40.0909 273.231 41.5303 276.898 43.3182C280.564 45.1061 283.564 47.2121 285.898 49.6364C288.231 52.0303 289.943 54.7273 291.034 57.7273C292.155 60.7273 292.731 64 292.761 67.5455C292.731 73.6667 291.201 78.8485 288.17 83.0909C285.14 87.3333 280.807 90.5606 275.17 92.7727C269.564 94.9848 262.822 96.0909 254.943 96.0909C246.852 96.0909 239.792 94.8939 233.761 92.5C227.761 90.1061 223.095 86.4242 219.761 81.4545C216.458 76.4545 214.792 70.0606 214.761 62.2727H238.761C238.913 65.1212 239.625 67.5152 240.898 69.4545C242.17 71.3939 243.958 72.8636 246.261 73.8636C248.595 74.8636 251.367 75.3636 254.58 75.3636C257.277 75.3636 259.534 75.0303 261.352 74.3636C263.17 73.697 264.549 72.7727 265.489 71.5909C266.428 70.4091 266.913 69.0606 266.943 67.5455C266.913 66.1212 266.443 64.8788 265.534 63.8182C264.655 62.7273 263.201 61.7576 261.17 60.9091C259.14 60.0303 256.398 59.2121 252.943 58.4545L243.67 56.4545C235.428 54.6667 228.928 51.6818 224.17 47.5C219.443 43.2879 217.095 37.5455 217.125 30.2727C217.095 24.3636 218.67 19.197 221.852 14.7727C225.064 10.3182 229.504 6.84848 235.17 4.36363C240.867 1.87878 247.398 0.63636 254.761 0.63636C262.277 0.63636 268.777 1.89394 274.261 4.40909C279.746 6.92424 283.973 10.4697 286.943 15.0455C289.943 19.5909 291.458 24.9091 291.489 31H267.307ZM338.375 60.4545H358.011L365.102 69.3636L377.102 83L392.739 101.909H370.375L359.284 89L351.83 78.2727L338.375 60.4545ZM392.557 48.4545C392.557 58.8182 390.542 67.5606 386.511 74.6818C382.481 81.7727 377.042 87.1515 370.193 90.8182C363.345 94.4545 355.708 96.2727 347.284 96.2727C338.799 96.2727 331.133 94.4394 324.284 90.7727C317.466 87.0758 312.042 81.6818 308.011 74.5909C304.011 67.4697 302.011 58.7576 302.011 48.4545C302.011 38.0909 304.011 29.3636 308.011 22.2727C312.042 15.1515 317.466 9.77272 324.284 6.13636C331.133 2.46969 338.799 0.63636 347.284 0.63636C355.708 0.63636 363.345 2.46969 370.193 6.13636C377.042 9.77272 382.481 15.1515 386.511 22.2727C390.542 29.3636 392.557 38.0909 392.557 48.4545ZM366.557 48.4545C366.557 42.8788 365.814 38.1818 364.33 34.3636C362.875 30.5151 360.708 27.6061 357.83 25.6364C354.981 23.6364 351.466 22.6364 347.284 22.6364C343.102 22.6364 339.572 23.6364 336.693 25.6364C333.845 27.6061 331.678 30.5151 330.193 34.3636C328.739 38.1818 328.011 42.8788 328.011 48.4545C328.011 54.0303 328.739 58.7424 330.193 62.5909C331.678 66.4091 333.845 69.3182 336.693 71.3182C339.572 73.2879 343.102 74.2727 347.284 74.2727C351.466 74.2727 354.981 73.2879 357.83 71.3182C360.708 69.3182 362.875 66.4091 364.33 62.5909C365.814 58.7424 366.557 54.0303 366.557 48.4545ZM404.375 95V1.90909H429.648V74.6364H467.284V95H404.375Z" fill="white"/>
</svg>
