<svg width="555" height="97" viewBox="0 0 555 97" fill="none" xmlns="http://www.w3.org/2000/svg">
<path d="M0 95V1.90909H40.1818C47.0909 1.90909 53.1364 3.27273 58.3182 6C63.5 8.72727 67.5303 12.5606 70.4091 17.5C73.2879 22.4394 74.7273 28.2121 74.7273 34.8182C74.7273 41.4848 73.2424 47.2576 70.2727 52.1364C67.3333 57.0152 63.197 60.7727 57.8636 63.4091C52.5606 66.0455 46.3636 67.3636 39.2727 67.3636H15.2727V47.7273H34.1818C37.1515 47.7273 39.6818 47.2121 41.7727 46.1818C43.8939 45.1212 45.5152 43.6212 46.6364 41.6818C47.7879 39.7424 48.3636 37.4545 48.3636 34.8182C48.3636 32.1515 47.7879 29.8788 46.6364 28C45.5152 26.0909 43.8939 24.6364 41.7727 23.6364C39.6818 22.6061 37.1515 22.0909 34.1818 22.0909H25.2727V95H0ZM80.1818 1.90909H108.364L126.545 39.7273H127.273L145.455 1.90909H173.636L139.455 65.7273V95H114.364V65.7273L80.1818 1.90909ZM185.205 22.2727V1.90909H266.114V22.2727H238.114V95H213.205V22.2727H185.205ZM275.625 95V1.90909H300.898V38.2727H334.352V1.90909H359.625V95H334.352V58.6364H300.898V95H275.625ZM461.807 48.4545C461.807 58.8182 459.792 67.5606 455.761 74.6818C451.731 81.7727 446.292 87.1515 439.443 90.8182C432.595 94.4545 424.958 96.2727 416.534 96.2727C408.049 96.2727 400.383 94.4394 393.534 90.7727C386.716 87.0758 381.292 81.6818 377.261 74.5909C373.261 67.4697 371.261 58.7576 371.261 48.4545C371.261 38.0909 373.261 29.3636 377.261 22.2727C381.292 15.1515 386.716 9.77272 393.534 6.13636C400.383 2.46969 408.049 0.63636 416.534 0.63636C424.958 0.63636 432.595 2.46969 439.443 6.13636C446.292 9.77272 451.731 15.1515 455.761 22.2727C459.792 29.3636 461.807 38.0909 461.807 48.4545ZM435.807 48.4545C435.807 42.8788 435.064 38.1818 433.58 34.3636C432.125 30.5151 429.958 27.6061 427.08 25.6364C424.231 23.6364 420.716 22.6364 416.534 22.6364C412.352 22.6364 408.822 23.6364 405.943 25.6364C403.095 27.6061 400.928 30.5151 399.443 34.3636C397.989 38.1818 397.261 42.8788 397.261 48.4545C397.261 54.0303 397.989 58.7424 399.443 62.5909C400.928 66.4091 403.095 69.3182 405.943 71.3182C408.822 73.2879 412.352 74.2727 416.534 74.2727C420.716 74.2727 424.231 73.2879 427.08 71.3182C429.958 69.3182 432.125 66.4091 433.58 62.5909C435.064 58.7424 435.807 54.0303 435.807 48.4545ZM554.045 1.90909V95H532.955L499.318 46.0909H498.773V95H473.5V1.90909H494.955L528.045 50.6364H528.773V1.90909H554.045Z" fill="white"/>
</svg>
