<svg width="440" height="97" viewBox="0 0 440 97" fill="none" xmlns="http://www.w3.org/2000/svg">
<path d="M0 95V1.90909H40.1818C47.0909 1.90909 53.1364 3.16666 58.3182 5.68182C63.5 8.19697 67.5303 11.8182 70.4091 16.5455C73.2879 21.2727 74.7273 26.9394 74.7273 33.5455C74.7273 40.2121 73.2424 45.8333 70.2727 50.4091C67.3333 54.9848 63.197 58.4394 57.8636 60.7727C52.5606 63.1061 46.3636 64.2727 39.2727 64.2727H15.2727V44.6364H34.1818C37.1515 44.6364 39.6818 44.2727 41.7727 43.5455C43.8939 42.7879 45.5152 41.5909 46.6364 39.9545C47.7879 38.3182 48.3636 36.1818 48.3636 33.5455C48.3636 30.8788 47.7879 28.7121 46.6364 27.0455C45.5152 25.3485 43.8939 24.1061 41.7727 23.3182C39.6818 22.5 37.1515 22.0909 34.1818 22.0909H25.2727V95H0ZM54.5455 52.2727L77.8182 95H50.3636L27.6364 52.2727H54.5455ZM85.5 95V1.90909H152.591V22.2727H110.773V38.2727H149.136V58.6364H110.773V74.6364H152.409V95H85.5ZM189.307 95H162.034L192.761 1.90909H227.307L258.034 95H230.761L210.398 27.5455H209.67L189.307 95ZM184.216 58.2727H235.489V77.1818H184.216V58.2727ZM349.534 36.8182H323.898C323.716 34.697 323.231 32.7727 322.443 31.0455C321.686 29.3182 320.625 27.8333 319.261 26.5909C317.928 25.3182 316.307 24.3485 314.398 23.6818C312.489 22.9848 310.322 22.6364 307.898 22.6364C303.655 22.6364 300.064 23.6667 297.125 25.7273C294.216 27.7879 292.004 30.7424 290.489 34.5909C289.004 38.4394 288.261 43.0606 288.261 48.4545C288.261 54.1515 289.019 58.9242 290.534 62.7727C292.08 66.5909 294.307 69.4697 297.216 71.4091C300.125 73.3182 303.625 74.2727 307.716 74.2727C310.049 74.2727 312.14 73.9848 313.989 73.4091C315.837 72.803 317.443 71.9394 318.807 70.8182C320.17 69.697 321.277 68.3485 322.125 66.7727C323.004 65.1667 323.595 63.3636 323.898 61.3636L349.534 61.5455C349.231 65.4848 348.125 69.5 346.216 73.5909C344.307 77.6515 341.595 81.4091 338.08 84.8636C334.595 88.2879 330.277 91.0455 325.125 93.1364C319.973 95.2273 313.989 96.2727 307.17 96.2727C298.625 96.2727 290.958 94.4394 284.17 90.7727C277.413 87.1061 272.064 81.7121 268.125 74.5909C264.216 67.4697 262.261 58.7576 262.261 48.4545C262.261 38.0909 264.261 29.3636 268.261 22.2727C272.261 15.1515 277.655 9.77272 284.443 6.13636C291.231 2.46969 298.807 0.63636 307.17 0.63636C313.049 0.63636 318.458 1.43939 323.398 3.04545C328.337 4.65151 332.67 7 336.398 10.0909C340.125 13.1515 343.125 16.9242 345.398 21.4091C347.67 25.8939 349.049 31.0303 349.534 36.8182ZM358.455 22.2727V1.90909H439.364V22.2727H411.364V95H386.455V22.2727H358.455Z" fill="white"/>
</svg>
