<svg width="635" height="94" viewBox="0 0 635 94" fill="none" xmlns="http://www.w3.org/2000/svg">
<path d="M0.454545 21.2727V0.909088H81.3636V21.2727H53.3636V94H28.4545V21.2727H0.454545ZM103.307 94H76.0341L106.761 0.909088H141.307L172.034 94H144.761L124.398 26.5455H123.67L103.307 94ZM98.2159 57.2727H149.489V76.1818H98.2159V57.2727ZM206.273 0.909088V94H181V0.909088H206.273ZM218.25 94V0.909088H243.523V73.6364H281.159V94H218.25ZM306.261 94L278.807 0.909088H306.989L319.716 58.1818H320.443L335.534 0.909088H357.716L372.807 58.3636H373.534L386.261 0.909088H414.443L386.989 94H362.807L346.989 42H346.261L330.443 94H306.261ZM447.898 0.909088V94H422.625V0.909088H447.898ZM540.42 0.909088V94H519.33L485.693 45.0909H485.148V94H459.875V0.909088H481.33L514.42 49.6364H515.148V0.909088H540.42ZM588.193 94H552.375V0.909088H587.83C597.405 0.909088 605.678 2.77273 612.648 6.5C619.648 10.197 625.042 15.5303 628.83 22.5C632.648 29.4394 634.557 37.7576 634.557 47.4545C634.557 57.1515 632.663 65.4848 628.875 72.4545C625.087 79.3939 619.723 84.7273 612.784 88.4545C605.845 92.1515 597.648 94 588.193 94ZM577.648 72.5455H587.284C591.89 72.5455 595.814 71.803 599.057 70.3182C602.33 68.8333 604.814 66.2727 606.511 62.6364C608.239 59 609.102 53.9394 609.102 47.4545C609.102 40.9697 608.223 35.9091 606.466 32.2727C604.739 28.6364 602.193 26.0758 598.83 24.5909C595.496 23.1061 591.405 22.3636 586.557 22.3636H577.648V72.5455Z" fill="white"/>
</svg>
